<?xml version="1.0" encoding="UTF-8"?>
<svg width="40px" height="40px" viewBox="0 0 40 40" version="1.1" xmlns="http://www.w3.org/2000/svg" xmlns:xlink="http://www.w3.org/1999/xlink">
    <!-- Generator: Sketch 52.5 (67469) - http://www.bohemiancoding.com/sketch -->
    <title>Strawberry_logo</title>
    <desc>Created with Sketch.</desc>
    <g id="Page-1" stroke="none" stroke-width="1" fill="none" fill-rule="evenodd">
        <g id="Jamirito" transform="translate(-8.000000, -11.000000)">
            <g id="Strawberry_logo" transform="translate(28.000000, 31.000000) scale(-1, 1) translate(-28.000000, -31.000000) translate(8.000000, 11.000000)">
                <path d="M34.570492,10.2574542 C34.7575826,10.30891 34.9387516,10.3728496 35.1152793,10.4464722 C37.0550837,7.93874364 36.2995995,3.70040478 36.2995995,3.70040478 C36.2995995,3.70040478 32.0607735,2.94481322 29.5534557,4.88508783 C29.6267555,5.06098173 29.6905327,5.24215726 29.7419066,5.4289345 C30.645991,8.71306094 27.5555556,12.4444444 27.5555556,12.4444444 C27.5555556,12.4444444 31.2780819,9.35109647 34.570492,10.2574542 Z" id="Path" fill="#969696"></path>
                <path d="M8.2151673,11.0730316 C13.9345597,5.35373984 22.5215755,6.03958874 28.2410472,11.7589598 C33.960281,17.4783308 34.6463703,26.0653937 28.9269779,31.7847648 C23.2076647,37.5040565 9.19693688,42.2418202 3.47754446,36.5224492 C-2.2417687,30.8029989 2.49585415,16.7924819 8.2151673,11.0730316 Z" id="Path" fill="#A8D8EA"></path>
                <g id="Group" transform="translate(22.222222, 0.888889)" fill="#969696">
                    <path d="M0.206564103,6.73037576 C0.386457516,7.38689293 0.717433886,7.97370505 1.12865158,8.49165657 C2.54120463,9.19001212 3.88345098,10.1328727 5.0987632,11.3075717 C5.3064736,11.3947798 5.42905178,11.4384606 5.42905178,11.4384606 C5.42905178,11.4384606 8.38292609,7.86738182 7.51746606,4.70892929 C6.65208245,1.5506303 2.29497838,0.000921212121 2.29497838,0.000921212121 C2.29497838,0.000921212121 -0.658895928,3.57192323 0.206564103,6.73037576 Z" id="Path"></path>
                    <path d="M8.36236903,15.7584848 C8.87828255,16.171802 9.46243942,16.5043596 10.1162152,16.6851475 C13.2602996,17.5544646 16.8152197,14.5870869 16.8152197,14.5870869 C16.8152197,14.5870869 15.2725229,10.2102545 12.1286677,9.34093737 C8.98450679,8.47146667 5.42943389,11.438998 5.42943389,11.438998 C5.42943389,11.438998 5.47291704,11.5622101 5.55988336,11.7707111 C6.72880845,12.9914707 7.66747914,14.3397414 8.36236903,15.7584848 Z" id="Path"></path>
                </g>
                <g id="Group" fill="#484848">
                    <path d="M26.1295313,30.0735156 L26.9721094,30.9160156 C28.5115625,29.3765625 29.5408594,27.5949219 30.0316406,25.6208594 L28.8753125,25.3334375 C28.4375781,27.0944531 27.51375,28.689375 26.1295313,30.0735156 Z" id="Path"></path>
                    <path d="M26.2961719,13.7072656 L25.4535938,14.5497656 C27.700625,16.796875 29.0133594,19.6041406 29.15,22.454375 C29.1726563,22.925625 29.1633594,23.3975781 29.1222656,23.8571094 L30.3090625,23.9629687 C30.3548438,23.4494531 30.3653125,22.9225781 30.3400781,22.3972656 C30.1892969,19.2505469 28.753125,16.164375 26.2961719,13.7072656 Z" id="Path"></path>
                    <path d="M39.8613281,15.349375 C39.8014062,15.1803125 38.5371875,11.6880469 35.9110937,10.1628906 C36.5213281,9.11914063 36.8621875,7.79273438 36.9241406,6.20601563 C36.9783594,4.8171875 36.79125,3.748125 36.7832812,3.70335938 L36.7103906,3.29429688 L36.3013281,3.22140625 C36.266875,3.2153125 35.4429687,3.07078125 34.3060937,3.07078125 C33.0207031,3.07078125 31.2754687,3.25960938 29.8414844,4.09351563 C28.3164844,1.466875 24.8235156,0.202421875 24.6544531,0.142578125 L24.2628125,0.00390625 L23.9973437,0.3234375 C23.8659375,0.4815625 20.7899219,4.23671875 21.7460937,7.71070313 C21.7826562,7.8434375 21.8270312,7.97515625 21.8752344,8.10617188 C20.32,7.55453125 18.6983594,7.26710938 17.06,7.26710938 C13.4104687,7.26710938 10.0708594,8.67765625 7.4021875,11.3463281 C4.49140625,14.2571094 1.85367187,19.2904688 0.68203125,24.1692188 C-0.697734375,29.9153125 0.030703125,34.5679688 2.73296875,37.2703906 C4.51617187,39.0535938 7.2140625,39.9960938 10.5348437,39.9960938 C13.5603906,39.9960938 17.1074219,39.208125 20.5223437,37.7773438 C23.8059375,36.4015625 26.6949219,34.5632813 28.6570312,32.6011719 C31.4617969,29.7964063 32.9048437,26.1321094 32.7202344,22.2832031 C32.6525781,20.871875 32.3705469,19.4742188 31.89125,18.1263281 C32.024375,18.1755469 32.158125,18.220625 32.293125,18.2577344 C32.7358594,18.3796094 33.2076562,18.4414844 33.6953125,18.4414844 C33.6954687,18.4414844 33.6953125,18.4414844 33.6954687,18.4414844 C36.7153125,18.4414844 39.5607812,16.1059375 39.6803906,16.0064844 L39.9998437,15.7410156 L39.8613281,15.349375 Z M30.32625,5.19164063 C31.5475,4.430625 33.1376562,4.2621875 34.3060156,4.2621875 C34.8665625,4.2621875 35.34625,4.30132813 35.6667969,4.33703125 C35.7771094,5.33984375 35.9209375,7.90054688 34.8134375,9.6778125 C34.7642969,9.66257813 34.7153906,9.64820313 34.6667187,9.63484375 C34.2239062,9.51289063 33.7520312,9.45109375 33.264375,9.45109375 C33.1748437,9.45109375 33.0855469,9.45351563 32.9964062,9.45742188 C32.9669531,9.45875 32.9377344,9.46117188 32.9082812,9.46289063 C32.8485937,9.46640625 32.7890625,9.47015625 32.7296875,9.4753125 C32.6948437,9.47835938 32.6601562,9.4821875 32.6254687,9.48578125 C32.5715625,9.49132813 32.5178125,9.4971875 32.4642187,9.5040625 C32.4277344,9.50875 32.3914844,9.51390625 32.3551562,9.5190625 C32.3033594,9.5265625 32.2516406,9.534375 32.2000781,9.54304688 C32.1634375,9.54914063 32.1270312,9.55546875 32.0905469,9.56210938 C32.039375,9.57148438 31.9883594,9.58140625 31.9375,9.59171875 C31.9016406,9.5990625 31.8658594,9.60632813 31.8300781,9.61414063 C31.7779687,9.62554688 31.7260937,9.63773438 31.674375,9.65015625 C31.6407812,9.65820313 31.6071875,9.6659375 31.57375,9.674375 C31.5169531,9.68875 31.4605469,9.70414063 31.4042187,9.7196875 C31.3766406,9.72734375 31.3488281,9.734375 31.3214062,9.74226563 C31.2389062,9.76585938 31.156875,9.79046875 31.075625,9.81640625 C31.0582812,9.821875 31.0414062,9.82789063 31.0242187,9.8334375 C30.9596094,9.854375 30.8953906,9.875625 30.8316406,9.8978125 C30.8002344,9.90867188 30.7696094,9.92015625 30.7384375,9.93132813 C30.6895312,9.94898438 30.6405469,9.96648438 30.5921875,9.9846875 C30.558125,9.99757813 30.5245312,10.0107031 30.4907812,10.0239063 C30.44625,10.0413281 30.4017187,10.0586719 30.3577344,10.0765625 C30.3232031,10.0904688 30.2892187,10.1046875 30.255,10.1189063 C30.2122656,10.1367969 30.1697656,10.1547656 30.1275781,10.1729688 C30.0940625,10.1875 30.060625,10.2020313 30.0275,10.2167188 C29.9855469,10.2353125 29.9439844,10.2541406 29.9028125,10.273125 C29.8704687,10.2878906 29.8380469,10.3026563 29.80625,10.3176563 C29.764375,10.3373438 29.723125,10.3571875 29.6820312,10.3771875 C29.6521875,10.3916406 29.6219531,10.4059375 29.5925,10.4204688 C29.5871094,10.4232031 29.5814062,10.4257813 29.5760156,10.4285156 C30.1441406,9.28257813 30.6385937,7.83023438 30.5397656,6.36023438 C30.5395312,6.3575 30.5394531,6.35492188 30.5392969,6.3521875 C30.5357812,6.30164063 30.5314844,6.25117188 30.5265625,6.20054688 C30.5259375,6.19382813 30.5254687,6.18695313 30.5248437,6.18015625 C30.5200781,6.13359375 30.5146094,6.08703125 30.50875,6.04054688 C30.5074219,6.03015625 30.5064062,6.01976563 30.5049219,6.00929688 C30.4992187,5.96617188 30.4925,5.923125 30.4857031,5.88007813 C30.4835937,5.8665625 30.4817187,5.853125 30.4795312,5.83960938 C30.4727344,5.79882813 30.4649219,5.758125 30.4570312,5.71742188 C30.4540625,5.70195313 30.4515625,5.68648438 30.4484375,5.67101563 C30.4402344,5.63054688 30.4310156,5.59015625 30.4217969,5.54976563 C30.4182812,5.534375 30.4153125,5.51882813 30.4115625,5.5034375 C30.3983594,5.44789063 30.3842187,5.39257813 30.3689844,5.3371875 C30.3555469,5.28898438 30.3414062,5.24039063 30.32625,5.19164063 Z M22.895,7.394375 C22.2509375,5.05445313 23.9780469,2.36132813 24.655,1.425625 C25.0660937,1.60210938 25.7473437,1.92476563 26.4685156,2.39375 C28.1016406,3.45570313 28.8110156,4.52890625 29.1135937,5.32789063 C29.1247656,5.35742188 29.135625,5.38703125 29.1459375,5.4165625 C29.1496094,5.426875 29.1528125,5.43695313 29.1563281,5.4471875 C29.165,5.47273438 29.1735156,5.49835938 29.1814844,5.52375 C29.1845312,5.5334375 29.1875,5.543125 29.1904687,5.55273438 C29.2008594,5.58640625 29.2108594,5.62 29.22,5.65335938 C29.2375781,5.71710938 29.2527344,5.78125 29.2667969,5.84554688 C29.27,5.85992188 29.273125,5.87421875 29.2760937,5.88859375 C29.2889844,5.9503125 29.3003906,6.0121875 29.3101562,6.07421875 C29.3122656,6.088125 29.3141406,6.10210938 29.3160937,6.11609375 C29.32375,6.16765625 29.3302344,6.21945313 29.3357812,6.27125 C29.3375,6.28828125 29.3396875,6.30523438 29.34125,6.32226563 C29.3467187,6.37953125 29.3507812,6.43695313 29.3539062,6.494375 C29.3553125,6.51898438 29.3561719,6.54367188 29.3571875,6.5684375 C29.35875,6.60851563 29.3596094,6.64867188 29.3600781,6.68875 C29.3604687,6.73140625 29.3603906,6.77398438 29.3596875,6.81664063 C29.3592187,6.84695313 29.3585156,6.87726563 29.3575781,6.90757813 C29.35625,6.94375 29.3547656,6.97984375 29.3527344,7.0159375 C29.3519531,7.02875 29.3509375,7.04148438 29.3500781,7.05421875 C29.345,7.131875 29.3384375,7.20953125 29.3299219,7.28703125 C29.3292187,7.29289063 29.3285937,7.29875 29.3279687,7.3046875 C29.1257812,9.09132813 28.0407812,10.8066406 27.5030469,11.5620313 C27.4950781,11.5546875 27.4871875,11.5475781 27.4792187,11.5403125 C27.4192969,11.4849219 27.3592187,11.4301563 27.2988281,11.3757031 C27.2839062,11.3621875 27.2688281,11.3488281 27.2538281,11.3353906 C26.1332031,10.333125 24.9192187,9.50398438 23.6425781,8.86164063 C23.2842969,8.38835938 23.0328906,7.89523438 22.895,7.394375 Z M27.8145312,31.7586719 C25.9594531,33.6138281 23.2060937,35.3610938 20.0619531,36.6784375 C16.7894531,38.0495313 13.4060156,38.8046875 10.5349219,38.8046875 C7.536875,38.8046875 5.13046875,37.9828125 3.57546875,36.4278906 C2.33609375,35.1885156 1.57210937,33.4539063 1.30445312,31.2722656 C1.060625,29.2838281 1.2459375,26.9238281 1.840625,24.4474219 C2.96445312,19.7671094 5.47828125,14.9553125 8.2446875,12.18875 C10.6850781,9.7484375 13.7332812,8.45859375 17.06,8.45859375 C19.0571875,8.45859375 21.0307031,8.92617188 22.87375,9.81226563 L22.8804687,9.82070313 L23.0000781,9.87953125 C24.229375,10.4846094 25.3849219,11.266875 26.4427344,12.2089063 C26.4546094,12.2195313 26.4666406,12.2303125 26.4785937,12.2409375 C26.5430469,12.2986719 26.6071094,12.356875 26.6707812,12.4158594 C26.6896875,12.4333594 26.7085156,12.4510156 26.7272656,12.4686719 C26.788125,12.5253906 26.84875,12.5823438 26.90875,12.6400781 L26.9088281,12.6401563 C26.9858594,12.7142969 27.0625781,12.7888281 27.1385156,12.8647656 C27.2128125,12.9390625 27.2858594,13.0139844 27.3583594,13.0892969 L27.3638281,13.095 C27.4169531,13.1503125 27.4692187,13.2060938 27.5214844,13.2620313 C27.5425781,13.2846094 27.5639844,13.3069531 27.585,13.3296875 C27.6334375,13.3821094 27.68125,13.435 27.7289844,13.4879688 C27.7538281,13.5155469 27.7788281,13.5430469 27.8033594,13.5707031 C27.8492969,13.6224219 27.8946875,13.6744531 27.94,13.7266406 C27.9650781,13.755625 27.9902344,13.7846875 28.0150781,13.8138281 C28.0598437,13.86625 28.1042187,13.9188281 28.1482031,13.9716406 C28.1720312,14.0002344 28.195625,14.0289844 28.2191406,14.0576563 C28.2638281,14.1120313 28.3082812,14.1665625 28.3521094,14.2214844 C28.3720312,14.2464844 28.3916406,14.2717188 28.4114844,14.2967969 C28.4583594,14.35625 28.5051562,14.415625 28.5510156,14.475625 C28.5578125,14.4846094 28.5644531,14.4936719 28.57125,14.5025781 C28.8058594,14.8103125 29.0278125,15.1247656 29.2367969,15.4457813 C29.2405469,15.4515625 29.2444531,15.4572656 29.248125,15.463125 C29.2996094,15.5425781 29.3503906,15.6224219 29.4003906,15.7026563 C29.4028906,15.7066406 29.4053906,15.710625 29.4078906,15.7146094 C29.6685937,16.1341406 29.9075,16.5640625 30.1236719,17.0034375 L30.1825,17.1230469 L30.1825781,17.123125 C30.98125,18.783125 31.444375,20.5510156 31.5301562,22.3403906 C31.6985937,25.8494531 30.3789062,29.194375 27.8145312,31.7586719 Z M33.6953906,17.2498438 C33.3146094,17.2498438 32.9491406,17.2024219 32.609375,17.1088281 C32.1053125,16.9700781 31.6088281,16.7163281 31.1321094,16.3541406 C30.9169531,15.9264844 30.6810937,15.5060938 30.4251562,15.0939844 C30.4203906,15.0863281 30.4157031,15.07875 30.4108594,15.0710156 C30.3625,14.9934375 30.3135156,14.9160156 30.26375,14.8389844 C30.2607812,14.8345313 30.2578906,14.8300781 30.255,14.825625 C30.1107031,14.6029688 29.9602344,14.3830469 29.8040625,14.1657031 C29.785,14.1391406 29.7660156,14.1125781 29.7467969,14.0860938 C29.705625,14.0294531 29.6639062,13.9730469 29.621875,13.9167188 C29.5975,13.8840625 29.5730469,13.8515625 29.5484375,13.8190625 C29.5072656,13.7649219 29.46625,13.7108594 29.424375,13.6571094 C29.3989844,13.6242969 29.3730469,13.5917969 29.3473437,13.5592188 C29.2600781,13.4485938 29.1713281,13.33875 29.0809375,13.2297656 C29.0648437,13.2103125 29.0489844,13.190625 29.0327344,13.17125 C28.9905469,13.1207813 28.9475781,13.0708594 28.9046875,13.0207031 C28.8746875,12.9857031 28.8446094,12.9504688 28.8142969,12.915625 C28.7715625,12.8665625 28.7284375,12.8177344 28.6850781,12.7690625 C28.6538281,12.7339844 28.6225,12.6990625 28.5908594,12.6641406 C28.5470312,12.6157813 28.5032031,12.5673438 28.4586719,12.5192188 C28.4528125,12.5128125 28.4470312,12.5063281 28.4410937,12.4999219 C28.4560156,12.4892969 28.4707031,12.4786719 28.4864062,12.4675781 C28.4942187,12.4621094 28.5014844,12.4567969 28.5094531,12.45125 C28.5430469,12.4275781 28.5780469,12.403125 28.6148437,12.3776563 C28.6179687,12.3755469 28.6213281,12.3732813 28.6244531,12.3710938 C28.6577344,12.3482031 28.6923437,12.3246875 28.728125,12.300625 C28.7385156,12.2936719 28.7492969,12.2864844 28.7599219,12.279375 C28.7905469,12.2589063 28.8221094,12.2379688 28.8544531,12.2167969 C28.865625,12.2094531 28.8766406,12.2021875 28.8880469,12.1948438 C28.9742969,12.1385938 29.0660937,12.0803906 29.1629687,12.0207813 C29.1746875,12.0135156 29.1867187,12.0063281 29.1984375,11.9990625 C29.2363281,11.9760156 29.2748437,11.9526563 29.3140625,11.9292969 C29.328125,11.9209375 29.3421094,11.9125781 29.3563281,11.9042188 C29.4003125,11.8782813 29.4451562,11.8521875 29.4907031,11.8259375 C29.49875,11.8213281 29.5063281,11.816875 29.514375,11.8122656 C29.5685937,11.78125 29.6240625,11.7502344 29.6804687,11.7191406 C29.6914844,11.713125 29.7028125,11.7070313 29.7139062,11.7009375 C29.7592187,11.67625 29.8051562,11.6514844 29.851875,11.6267188 C29.8682031,11.6180469 29.8847656,11.609375 29.9013281,11.6007031 C29.9471875,11.5767969 29.9935937,11.5528906 30.040625,11.5291406 C30.054375,11.5222656 30.0680469,11.5152344 30.0817969,11.5082813 C30.1428125,11.4778906 30.2044531,11.4475781 30.2671875,11.4176563 C30.274375,11.4142188 30.2817187,11.4110156 30.2889062,11.4075781 C30.3435937,11.3817188 30.3989844,11.3560938 30.455,11.3307813 C30.4732812,11.3224219 30.4917969,11.3142969 30.5102344,11.3060938 C30.5580469,11.2848438 30.6063281,11.2638281 30.655,11.243125 C30.6732031,11.2353125 30.6914844,11.2275 30.7097656,11.2197656 C30.8408594,11.1648438 30.9747656,11.1121875 31.1110937,11.0625781 C31.1299219,11.0557031 31.1489844,11.0490625 31.1678906,11.0423438 C31.2185156,11.0242969 31.2692187,11.0066406 31.3204687,10.9895313 C31.3416406,10.9825 31.3628125,10.9753125 31.3841406,10.9684375 C31.4414844,10.9497656 31.4990625,10.9317188 31.5571875,10.914375 C31.5697656,10.9105469 31.5821875,10.9064844 31.5948437,10.9028906 C31.6650781,10.8821875 31.7358594,10.8625 31.806875,10.8439844 C31.8244531,10.839375 31.8421094,10.8351563 31.8597656,10.8307031 C31.9138281,10.8169531 31.968125,10.80375 32.0225781,10.7913281 C32.045625,10.7860938 32.0686719,10.7810156 32.0917969,10.7759375 C32.145625,10.7642969 32.1996875,10.7533594 32.2539062,10.7430469 C32.2730469,10.739375 32.2921875,10.7353906 32.3113281,10.7320313 C32.3835937,10.7189063 32.4561719,10.7071094 32.5288281,10.6967188 C32.5419531,10.6949219 32.5550781,10.6934375 32.5680469,10.6917188 C32.6280469,10.6835156 32.6880469,10.6764063 32.7482031,10.6702344 C32.7715625,10.6678125 32.7949219,10.6657813 32.8183594,10.6636719 C32.8710937,10.6589844 32.9239844,10.6550781 32.9767969,10.6520313 C32.9991406,10.6507031 33.0214844,10.6491406 33.0438281,10.6482031 C33.1172656,10.6448438 33.1907812,10.6426563 33.2641406,10.6426563 C33.3653125,10.6426563 33.4653125,10.6465625 33.5641406,10.6532031 C33.8372656,10.6716406 34.1007812,10.715 34.3504687,10.78375 C34.350625,10.78375 34.3507031,10.7838281 34.3508594,10.7838281 C34.415,10.8014844 34.4782031,10.8214844 34.5408594,10.8423438 C34.555,10.8471094 34.5689844,10.8514844 34.583125,10.8564063 C34.63375,10.8739063 34.6835156,10.8930469 34.7332812,10.9125781 C34.7578906,10.9222656 34.7826562,10.931875 34.8074219,10.9421875 C36.8761719,11.8030469 38.1499219,14.3591406 38.5771875,15.349375 C37.7839062,15.92375 35.7309375,17.2498438 33.6953906,17.2498438 Z" id="Shape" fill-rule="nonzero"></path>
                </g>
                <g id="face" transform="translate(5.333333, 20.444444)">
                    <g id="Group" transform="translate(0.000000, 3.333333)" fill="#FFFFFF">
                        <ellipse id="Oval" cx="2.84444444" cy="2.33333333" rx="2.84444444" ry="2.33333333"></ellipse>
                        <ellipse id="Oval" cx="18.4888889" cy="2.33333333" rx="2.84444444" ry="2.33333333"></ellipse>
                    </g>
                    <path d="M18.7032561,2.99805965 C19.0846975,2.99805965 19.3939394,2.67822344 19.3939394,2.28371434 C19.3939394,1.02446642 18.4034075,0 17.185871,0 C15.9683346,0 14.9778026,1.02446642 14.9778026,2.28371434 C14.9778026,2.67822344 15.2870446,2.99805965 15.6684859,2.99805965 C16.0499273,2.99805965 16.3591692,2.67822344 16.3591692,2.28371434 C16.3591692,1.81224643 16.7300201,1.42869062 17.185871,1.42869062 C17.641722,1.42869062 18.0125729,1.81224643 18.0125729,2.28371434 C18.0125729,2.67822344 18.3218148,2.99805965 18.7032561,2.99805965 Z M11.2710544,3.39126655 C10.9960704,3.71748424 10.5992498,3.90464271 10.1821692,3.90464271 C9.76508861,3.90464271 9.36826805,3.71757948 9.0933761,3.39126655 C8.84279621,3.09371791 8.40646857,3.06285819 8.11886805,3.32202267 C7.83126754,3.58118715 7.80133793,4.0324629 8.05191782,4.32991629 C8.58917732,4.96758853 9.3656895,5.33333333 10.1821692,5.33333333 C10.9986489,5.33333333 11.775069,4.96758853 12.3123285,4.32991629 C12.5630005,4.0324629 12.5329788,3.5812824 12.2454704,3.32202267 C11.9579619,3.06285819 11.5216343,3.09381316 11.2710544,3.39126655 Z M1.29292929,2.28371434 C1.29292929,2.67822344 1.60217122,2.99805965 1.98361256,2.99805965 C2.36505391,2.99805965 2.67429584,2.67822344 2.67429584,2.28371434 C2.67429584,1.81224643 3.04514671,1.42869062 3.50099767,1.42869062 C3.95684862,1.42869062 4.3276995,1.81224643 4.3276995,2.28371434 C4.3276995,2.67822344 4.63694142,2.99805965 5.01838277,2.99805965 C5.39982411,2.99805965 5.70906604,2.67822344 5.70906604,2.28371434 C5.70906604,1.02446642 4.71853414,0 3.50099767,0 C2.28346119,0 1.29292929,1.02446642 1.29292929,2.28371434 Z" id="Shape" fill="#484848" fill-rule="nonzero"></path>
                </g>
            </g>
        </g>
    </g>
</svg>